<svg xmlns="http://www.w3.org/2000/svg" viewBox="0 0 240 240" width="240" height="240"><g transform="translate(3.5 3.0) scale(0.971)"><ellipse cx="120" cy="214" rx="96" ry="9" fill="#2B201C" opacity=".13"/><ellipse cx="54" cy="140" rx="36" ry="58" fill="#E57E24" stroke="#9C4A10" stroke-width="3.5"/><ellipse cx="186" cy="140" rx="36" ry="58" fill="#E57E24" stroke="#9C4A10" stroke-width="3.5"/><ellipse cx="82" cy="140" rx="42" ry="66" fill="#F08F30" stroke="#9C4A10" stroke-width="3.5"/><ellipse cx="158" cy="140" rx="42" ry="66" fill="#F08F30" stroke="#9C4A10" stroke-width="3.5"/><ellipse cx="120" cy="140" rx="40" ry="70" fill="#F6A23E" stroke="#9C4A10" stroke-width="3.5"/><path d="M86 196 C 100 210, 140 210, 154 196 C 140 204, 100 204, 86 196 Z" fill="#D97A22"/><ellipse cx="108" cy="108" rx="8" ry="22" fill="#FBC77E" opacity=".9"/><g transform="translate(112 64) rotate(200)"><path d="M0 0 C 17.4 -29, 46.4 -20.3, 58 0 C 46.4 20.3, 17.4 29, 0 0 Z" fill="#6FA845" stroke="#3D6E25" stroke-width="3" stroke-linejoin="round" stroke-linecap="round"/><path d="M4.6 0 L49.3 0" fill="none" stroke="#3D6E25" stroke-width="2" stroke-linejoin="round" stroke-linecap="round"/></g><path d="M112 74 C 112 58, 116 42, 128 30 L 138 36 C 130 48, 128 62, 130 74 Z" fill="#6E7A2E" stroke="#3E4A16" stroke-width="3.5" stroke-linejoin="round" stroke-linecap="round"/><path d="M130 46 C 150 44, 160 30, 152 22 C 146 16, 138 24, 146 28" fill="none" stroke="#6E9A3A" stroke-width="3" stroke-linejoin="round" stroke-linecap="round"/></g></svg>