<svg xmlns="http://www.w3.org/2000/svg" viewBox="0 0 240 240" width="240" height="240"><g transform="translate(0.9 -0.4) scale(0.993)"><ellipse cx="120" cy="214" rx="72" ry="9" fill="#2B201C" opacity=".13"/><ellipse cx="120" cy="130" rx="76" ry="82" fill="#913B70" stroke="#4C1A3C" stroke-width="4"/><path d="M58 168 C 86 214, 168 214, 190 160 C 184 200, 150 214, 120 212 C 92 212, 70 196, 58 168 Z" fill="#712A57"/><path d="M114 50 C 140 80, 144 160, 126 210" fill="none" stroke="#6A2450" stroke-width="3.5" stroke-linejoin="round" stroke-linecap="round"/><ellipse cx="84" cy="104" rx="22" ry="34" fill="#C291B6" opacity=".75" transform="rotate(18 84 104)"/><ellipse cx="166" cy="120" rx="10" ry="18" fill="#B07AA2" opacity=".55"/><path d="M114 50 C 112 38, 114 28, 120 22" fill="none" stroke="#6E5A2A" stroke-width="5" stroke-linejoin="round" stroke-linecap="round"/></g></svg>